<svg xmlns="http://www.w3.org/2000/svg" viewBox="0 0 32 32" fill="none">
  <!-- Simplified Convex-style tri-arc mark -->
  <path d="M19.2 25.9c4.4-.5 8.5-2.8 10.8-6.6-1.1 9.5-11.6 15.5-20.3 11.8-.8-.34-1.5-.8-2-1.5-2.2-2.9-3-6.6-1.9-10.1 3 5 8 6.9 13.4 6.4z" fill="#F3B01C"/>
  <path d="M8.4 15.4c-1.8 4-1.9 8.8.4 12.6C1.1 22.3.2 10.3 7 4.2c.7-.6 1.5-1 2.4-1.1 3.6-.5 7.3.9 9.6 3.6-5.8 0-10.3 3.4-12.6 8.7z" fill="#8D2676"/>
  <path d="M20.7 7c-2.6-3.5-6.7-6-11.2-6C18.1-2.9 28.5 3.2 29.7 12.5c.1.9 0 1.8-.4 2.6-1.5 3.3-4.5 5.6-8.1 5.9 2.9-5.1 2.7-9.9-.5-14z" fill="#EE342F"/>
</svg>
