<svg xmlns="http://www.w3.org/2000/svg" version="1.1" xmlns:xlink="http://www.w3.org/1999/xlink" width="1000" height="1000"><metadata><rdf:RDF xmlns:rdf="http://www.w3.org/1999/02/22-rdf-syntax-ns#" xmlns:dc="http://purl.org/dc/elements/1.1/"><rdf:Description><dc:creator>RealFaviconGenerator</dc:creator><dc:source>https://realfavicongenerator.net</dc:source></rdf:Description></rdf:RDF></metadata><g clip-path="url(#SvgjsClipPath1001)"><rect width="1000" height="1000" fill="#14161c"></rect><g transform="matrix(8.4,0,0,8.4,80,80)"><svg xmlns="http://www.w3.org/2000/svg" viewBox="0 0 100 100" width="100" height="100" role="img" aria-label="Nuxt Convex"><defs>
    <linearGradient id="swirl" x1="0.15" y1="0.08" x2="0.85" y2="0.96">
      <stop offset="0" stop-color="#CDD2DA"></stop>
      <stop offset="1" stop-color="#969CA8"></stop>
    </linearGradient>
  <clipPath id="SvgjsClipPath1001"><rect width="1000" height="1000" x="0" y="0" rx="110" ry="110"></rect></clipPath></defs><g transform="translate(2.65 5.9)">
    <svg x="8" y="6" width="72" height="72" viewBox="0 0 24 24"><path d="M15.09 18.916c3.488-.387 6.776-2.246 8.586-5.348-.857 7.673-9.247 12.522-16.095 9.545a3.47 3.47 0 0 1-1.547-1.314c-1.539-2.417-2.044-5.492-1.318-8.282 2.077 3.584 6.3 5.78 10.374 5.399m-10.501-7.65c-1.414 3.266-1.475 7.092.258 10.24-6.1-4.59-6.033-14.41-.074-18.953a3.44 3.44 0 0 1 1.893-.707c2.825-.15 5.695.942 7.708 2.977-4.09.04-8.073 2.66-9.785 6.442m11.757-5.437C14.283 2.951 11.053.992 7.515.933c6.84-3.105 15.253 1.929 16.17 9.37a3.6 3.6 0 0 1-.334 2.02c-1.278 2.594-3.647 4.607-6.416 5.352 2.029-3.763 1.778-8.36-.589-11.847" fill="url(#swirl)"></path></svg>
    <svg x="50" y="51" width="36" height="36" viewBox="0 0 24 24"><path d="M13.4642 19.8295h8.9218c.2834 0 .5618-.0723.8072-.2098a1.5899 1.5899 0 0 0 .5908-.5732 1.5293 1.5293 0 0 0 .216-.783 1.529 1.529 0 0 0-.2167-.7828L17.7916 7.4142a1.5904 1.5904 0 0 0-.5907-.573 1.6524 1.6524 0 0 0-.807-.2099c-.2833 0-.5616.0724-.807.2098a1.5904 1.5904 0 0 0-.5907.5731L13.4642 9.99l-2.9954-5.0366a1.5913 1.5913 0 0 0-.591-.573 1.6533 1.6533 0 0 0-.8071-.2098c-.2834 0-.5617.0723-.8072.2097a1.5913 1.5913 0 0 0-.591.573L.2168 17.4808A1.5292 1.5292 0 0 0 0 18.2635c-.0001.2749.0744.545.216.783a1.59 1.59 0 0 0 .5908.5732c.2454.1375.5238.2098.8072.2098h5.6003c2.219 0 3.8554-.9454 4.9813-2.7899l2.7337-4.5922L16.3935 9.99l4.3944 7.382h-5.8586ZM7.123 17.3694l-3.9083-.0009 5.8586-9.8421 2.9232 4.921-1.9572 3.2892c-.7478 1.1967-1.5972 1.6328-2.9163 1.6328z" fill="#FFFFFF" paint-order="stroke" stroke="#14161c" stroke-width="2" stroke-linejoin="round"></path></svg>
  </g></svg></g></g></svg>