<svg xmlns="http://www.w3.org/2000/svg" viewBox="0 0 385.4 320.6" fill="none" role="img" aria-label="Nuxt Convex">
<path d="M161.23 5.70605C163.953 5.70605 166.582 6.09595 169.07 6.82227C174.941 8.53626 180.008 12.1249 183.586 16.8975C184.594 18.2403 185.48 19.6776 186.234 21.1924L238.1 108.548C237.848 108.556 237.596 108.563 237.344 108.573L236.012 108.634L235.991 108.635C226.446 109.162 217.479 112.623 210.064 118.272L210.06 118.276C205.957 121.405 202.128 124.774 198.571 128.349L161.781 65.7051L58.6094 243.785H127.863C143.382 243.785 155.245 240.655 165.342 232.183C167.46 247.559 172.371 262.563 180.102 276.188C165.632 284.659 148.773 289.012 129.273 289.012H30.3398C24.0829 288.942 17.8567 287.431 12.6445 283.86C5.53128 278.801 0.890625 270.49 0.890625 261.094C0.890649 255.591 2.5314 250.785 5.25391 246.104L136.34 20.4746C137.195 19.0063 138.281 17.5112 139.512 16.0801C141.234 13.9482 143.266 12.0747 145.539 10.5283C147.035 9.51078 148.633 8.6345 150.316 7.91895C153.668 6.4938 157.359 5.70605 161.23 5.70605Z" fill="url(#paint0_linear_3905_1386)"/>
<path d="M237.362 110.946L237.383 110.945C238.079 110.913 238.774 110.882 239.471 110.859H242.225L237.363 102.312L187.605 23.5033L163.152 68.016L199.942 130.66C203.499 127.085 207.328 123.716 211.431 120.587L211.436 120.583C218.85 114.934 227.817 111.473 237.362 110.946Z" fill="url(#paint1_linear_3905_1386)"/>
<path d="M290.969 51.8096C297.836 51.8096 304.125 54.2902 308.989 58.4033C311.785 60.5246 313.965 63.0779 315.836 66.292L348.602 114.897C317.212 96.7562 281.208 89.1745 240.645 103.239L266.368 66.292C267.336 64.6304 268.387 63.1457 269.563 61.8057C274.684 55.6953 282.372 51.8096 290.969 51.8096Z" fill="url(#paint2_linear_3905_1386)"/>
<g filter="url(#filter0_i_3905_1386)">
<path d="M161.23 0.706055C163.953 0.706055 166.582 1.09595 169.07 1.82227C174.941 3.53626 180.008 7.1249 183.586 11.8975C184.594 13.2403 185.48 14.6776 186.234 16.1924L237.36 102.303L240.972 108.635C240.535 108.647 237.78 108.556 237.344 108.573L235.991 108.635C226.446 109.162 217.479 112.623 210.064 118.272L210.06 118.276C206.663 120.866 203.455 123.619 200.433 126.519L161.781 60.7051L58.6094 238.785H127.863C143.104 238.785 154.819 235.766 164.798 227.633C166.376 243.162 170.773 258.414 178.022 272.366C164.023 280.061 147.847 284.012 129.273 284.012H30.3398C24.0829 283.942 17.8567 282.431 12.6445 278.86C5.53128 273.801 0.890625 265.49 0.890625 256.094C0.890649 250.591 2.5314 245.785 5.25391 241.104L136.34 15.4746C137.195 14.0063 138.281 12.5112 139.512 11.0801C141.234 8.94824 143.266 7.07471 145.539 5.52832C147.035 4.51078 148.633 3.6345 150.316 2.91895C153.668 1.4938 157.359 0.706055 161.23 0.706055Z" fill="url(#paint3_linear_3905_1386)"/>
<path d="M290.969 44.8096C297.836 44.8096 304.125 47.2902 308.988 51.4033C311.785 53.5246 313.965 56.0779 315.836 59.292L345.927 111.05C315.825 92.296 278.059 86.1946 243.087 99.7275L266.367 59.292C267.336 57.6304 268.387 56.1457 269.562 54.8057C274.684 48.6953 282.371 44.8096 290.969 44.8096Z" fill="url(#paint4_linear_3905_1386)"/>
</g>
<path d="M173.232 274.785C174.855 274.011 176.451 273.189 178.02 272.32C171.466 259.612 167.164 245.467 165.195 231.387L163.176 232.829L164.641 256.842L173.232 274.785Z" fill="url(#paint5_linear_3905_1386)"/>
<g filter="url(#filter1_d_3905_1386)">
<path d="M319.611 158.446C301.559 133.276 273.304 116.14 242.348 115.619C302.187 88.4574 375.793 132.494 383.807 197.6C384.553 203.644 383.574 209.806 380.894 215.257C369.714 237.963 348.984 255.573 324.759 262.09C342.508 229.17 340.318 188.949 319.611 158.446Z" fill="url(#paint6_linear_3905_1386)"/>
<g filter="url(#filter2_f_3905_1386)">
<path fill-rule="evenodd" clip-rule="evenodd" d="M255.457 116.839C258.482 116.025 261.093 115.566 264.484 115.042C271.125 114.016 278.584 113.793 285.856 114.443C298.354 115.559 310.518 119.293 319.896 124.731C332.821 132.225 344.528 143.021 351.698 153.433C361.468 167.618 366.535 182.074 368.015 200.387C368.757 209.574 367.337 218.982 365.501 227.981C364.655 232.129 363.587 236.23 362.6 240.346C370.043 233.132 376.284 224.629 380.898 215.257C383.577 209.806 384.557 203.644 383.811 197.6C375.797 132.494 302.191 88.4574 242.352 115.619C246.783 115.693 251.159 116.108 255.457 116.839Z" fill="url(#paint7_linear_3905_1386)"/>
</g>
</g>
<g filter="url(#filter3_d_3905_1386)">
<path d="M216.335 205.551C203.525 233.752 202.769 266.788 217.76 293.878C164.368 255.565 165.816 169.804 218.246 130.38C223.112 126.719 228.941 124.494 235.002 124.096C260.257 122.46 285.861 131.642 303.594 149.386C266.208 150.425 232.442 172.387 216.335 205.551Z" fill="url(#paint8_linear_3905_1386)"/>
<g filter="url(#filter4_f_3905_1386)">
<path fill-rule="evenodd" clip-rule="evenodd" d="M212.279 281.91C210.064 279.693 208.364 277.659 206.217 274.98C202.015 269.737 198.1 263.383 195.036 256.757C189.769 245.368 186.938 232.962 186.973 222.122C187.021 207.182 190.536 191.65 195.983 180.242C206.312 158.606 224.312 142.34 246.501 133.693C252.842 131.223 259.347 129.361 265.867 127.438C255.904 124.588 245.423 123.421 235.002 124.096C228.941 124.494 223.112 126.719 218.246 130.38C165.816 169.804 164.368 255.565 217.76 293.878C215.614 290 213.79 286 212.279 281.91Z" fill="url(#paint9_linear_3905_1386)"/>
</g>
</g>
<g filter="url(#filter5_d_3905_1386)">
<path d="M308.804 273.723C335.21 271.058 360.234 258.959 376.844 238.828C379.62 235.465 382.16 231.877 384.433 228.072C378.168 293.488 303.313 335.366 242.871 309.876C237.259 307.511 232.404 303.592 229.012 298.553C223.188 289.885 218.925 280.239 216.379 270.194C212.754 255.897 212.606 240.791 216.376 226.547C236.076 258.339 272.039 276.479 308.804 273.723Z" fill="url(#paint10_linear_3905_1386)"/>
<g filter="url(#filter6_f_3905_1386)">
<path fill-rule="evenodd" clip-rule="evenodd" d="M376.844 238.828C376.043 241.857 375.139 244.35 373.904 247.552C371.485 253.821 367.962 260.4 363.775 266.381C356.58 276.661 347.281 285.347 337.894 290.768C324.956 298.241 309.764 303.013 297.164 304.043C273.269 305.995 250.157 298.618 231.524 283.787C226.164 279.521 221.353 274.894 216.379 270.194C218.925 280.239 223.188 289.885 229.012 298.553C232.404 303.592 237.259 307.511 242.871 309.876C303.313 335.366 378.168 293.488 384.433 228.072C382.16 231.877 379.62 235.465 376.844 238.828Z" fill="url(#paint11_linear_3905_1386)"/>
</g>
</g>
<defs>
<filter id="filter0_i_3905_1386" x="0.890625" y="0.706055" width="345.035" height="284.306" filterUnits="userSpaceOnUse" color-interpolation-filters="sRGB">
<feFlood flood-opacity="0" result="BackgroundImageFix"/>
<feBlend mode="normal" in="SourceGraphic" in2="BackgroundImageFix" result="shape"/>
<feColorMatrix in="SourceAlpha" type="matrix" values="0 0 0 0 0 0 0 0 0 0 0 0 0 0 0 0 0 0 127 0" result="hardAlpha"/>
<feOffset dy="5"/>
<feGaussianBlur stdDeviation="0.5"/>
<feComposite in2="hardAlpha" operator="arithmetic" k2="-1" k3="1"/>
<feColorMatrix type="matrix" values="0 0 0 0 0.218264 0 0 0 0 0.977389 0 0 0 0 0.666838 0 0 0 0.6 0"/>
<feBlend mode="normal" in2="shape" result="effect1_innerShadow_3905_1386"/>
</filter>
<filter id="filter1_d_3905_1386" x="242.348" y="107.459" width="141.707" height="157.318" filterUnits="userSpaceOnUse" color-interpolation-filters="sRGB">
<feFlood flood-opacity="0" result="BackgroundImageFix"/>
<feColorMatrix in="SourceAlpha" type="matrix" values="0 0 0 0 0 0 0 0 0 0 0 0 0 0 0 0 0 0 127 0" result="hardAlpha"/>
<feOffset dy="2.68751"/>
<feComposite in2="hardAlpha" operator="out"/>
<feColorMatrix type="matrix" values="0 0 0 0 0.512921 0 0 0 0 0.0439484 0 0 0 0 0.029293 0 0 0 1 0"/>
<feBlend mode="normal" in2="BackgroundImageFix" result="effect1_dropShadow_3905_1386"/>
<feBlend mode="normal" in="SourceGraphic" in2="effect1_dropShadow_3905_1386" result="shape"/>
</filter>
<filter id="filter2_f_3905_1386" x="241.68" y="106.787" width="143.047" height="134.23" filterUnits="userSpaceOnUse" color-interpolation-filters="sRGB">
<feFlood flood-opacity="0" result="BackgroundImageFix"/>
<feBlend mode="normal" in="SourceGraphic" in2="BackgroundImageFix" result="shape"/>
<feGaussianBlur stdDeviation="0.335939" result="effect1_foregroundBlur_3905_1386"/>
</filter>
<filter id="filter3_d_3905_1386" x="178.316" y="123.91" width="125.277" height="172.656" filterUnits="userSpaceOnUse" color-interpolation-filters="sRGB">
<feFlood flood-opacity="0" result="BackgroundImageFix"/>
<feColorMatrix in="SourceAlpha" type="matrix" values="0 0 0 0 0 0 0 0 0 0 0 0 0 0 0 0 0 0 127 0" result="hardAlpha"/>
<feOffset dy="2.68751"/>
<feComposite in2="hardAlpha" operator="out"/>
<feColorMatrix type="matrix" values="0 0 0 0 0.429763 0 0 0 0 0.12853 0 0 0 0 0.365012 0 0 0 1 0"/>
<feBlend mode="normal" in2="BackgroundImageFix" result="effect1_dropShadow_3905_1386"/>
<feBlend mode="normal" in="SourceGraphic" in2="effect1_dropShadow_3905_1386" result="shape"/>
</filter>
<filter id="filter4_f_3905_1386" x="177.645" y="123.238" width="88.8945" height="171.312" filterUnits="userSpaceOnUse" color-interpolation-filters="sRGB">
<feFlood flood-opacity="0" result="BackgroundImageFix"/>
<feBlend mode="normal" in="SourceGraphic" in2="BackgroundImageFix" result="shape"/>
<feGaussianBlur stdDeviation="0.335939" result="effect1_foregroundBlur_3905_1386"/>
</filter>
<filter id="filter5_d_3905_1386" x="213.605" y="226.547" width="170.828" height="93.5776" filterUnits="userSpaceOnUse" color-interpolation-filters="sRGB">
<feFlood flood-opacity="0" result="BackgroundImageFix"/>
<feColorMatrix in="SourceAlpha" type="matrix" values="0 0 0 0 0 0 0 0 0 0 0 0 0 0 0 0 0 0 127 0" result="hardAlpha"/>
<feOffset dy="2.68751"/>
<feComposite in2="hardAlpha" operator="out"/>
<feColorMatrix type="matrix" values="0 0 0 0 0.832501 0 0 0 0 0.574802 0 0 0 0 0.00864583 0 0 0 1 0"/>
<feBlend mode="normal" in2="BackgroundImageFix" result="effect1_dropShadow_3905_1386"/>
<feBlend mode="normal" in="SourceGraphic" in2="effect1_dropShadow_3905_1386" result="shape"/>
</filter>
<filter id="filter6_f_3905_1386" x="215.707" y="227.4" width="169.398" height="90.7095" filterUnits="userSpaceOnUse" color-interpolation-filters="sRGB">
<feFlood flood-opacity="0" result="BackgroundImageFix"/>
<feBlend mode="normal" in="SourceGraphic" in2="BackgroundImageFix" result="shape"/>
<feGaussianBlur stdDeviation="0.335939" result="effect1_foregroundBlur_3905_1386"/>
</filter>
<!-- Every stop carries its colour TWICE: an sRGB hex, then the same colour in
     display-p3. Renderers that understand the wide-gamut form take it and win
     the saturation the mark was drawn with; everything else falls back to the
     hex. Do not "tidy" the duplicates away — dropping them desaturates the
     whole mark on any P3 display. -->
<linearGradient id="paint0_linear_3905_1386" x1="213.602" y1="5.70605" x2="213.602" y2="289.012" gradientUnits="userSpaceOnUse">
<stop stop-color="#466F5E" style="stop-color:#466F5E;stop-color:color(display-p3 0.2730 0.4362 0.3694);stop-opacity:1;"/>
<stop offset="1" stop-color="#042618" style="stop-color:#042618;stop-color:color(display-p3 0.0175 0.1474 0.0942);stop-opacity:1;"/>
</linearGradient>
<linearGradient id="paint1_linear_3905_1386" x1="173.371" y1="32.8109" x2="261.872" y2="220.183" gradientUnits="userSpaceOnUse">
<stop stop-color="#466F5E" style="stop-color:#466F5E;stop-color:color(display-p3 0.2730 0.4362 0.3694);stop-opacity:1;"/>
<stop offset="1" stop-color="#042618" style="stop-color:#042618;stop-color:color(display-p3 0.0175 0.1474 0.0942);stop-opacity:1;"/>
</linearGradient>
<linearGradient id="paint2_linear_3905_1386" x1="213.602" y1="7.70606" x2="213.602" y2="291.012" gradientUnits="userSpaceOnUse">
<stop stop-color="#466F5E" style="stop-color:#466F5E;stop-color:color(display-p3 0.2730 0.4362 0.3694);stop-opacity:1;"/>
<stop offset="1" stop-color="#042618" style="stop-color:#042618;stop-color:color(display-p3 0.0175 0.1474 0.0942);stop-opacity:1;"/>
</linearGradient>
<linearGradient id="paint3_linear_3905_1386" x1="214.077" y1="0.706055" x2="214.077" y2="284.012" gradientUnits="userSpaceOnUse">
<stop stop-color="#04C274" style="stop-color:#04C274;stop-color:color(display-p3 0.0148 0.7611 0.4558);stop-opacity:1;"/>
<stop offset="1" stop-color="#004B2C" style="stop-color:#004B2C;stop-color:color(display-p3 0.0000 0.2923 0.1728);stop-opacity:1;"/>
</linearGradient>
<linearGradient id="paint4_linear_3905_1386" x1="214.077" y1="0.706055" x2="214.077" y2="284.012" gradientUnits="userSpaceOnUse">
<stop stop-color="#04C274" style="stop-color:#04C274;stop-color:color(display-p3 0.0148 0.7611 0.4558);stop-opacity:1;"/>
<stop offset="1" stop-color="#004B2C" style="stop-color:#004B2C;stop-color:color(display-p3 0.0000 0.2923 0.1728);stop-opacity:1;"/>
</linearGradient>
<linearGradient id="paint5_linear_3905_1386" x1="163.176" y1="232.446" x2="174.538" y2="273.924" gradientUnits="userSpaceOnUse">
<stop stop-color="#22BC7D" style="stop-color:#22BC7D;stop-color:color(display-p3 0.1333 0.7373 0.4902);stop-opacity:1;"/>
<stop offset="0.02" stop-color="#22BC7D" style="stop-color:#22BC7D;stop-color:color(display-p3 0.1333 0.7373 0.4902);stop-opacity:1;"/>
<stop offset="0.05" stop-color="#015C37" style="stop-color:#015C37;stop-color:color(display-p3 0.0039 0.3617 0.2155);stop-opacity:1;"/>
<stop offset="1" stop-color="#014D2E" style="stop-color:#014D2E;stop-color:color(display-p3 0.0039 0.3020 0.1804);stop-opacity:1;"/>
</linearGradient>
<linearGradient id="paint6_linear_3905_1386" x1="372.534" y1="144.806" x2="326.207" y2="191.133" gradientUnits="userSpaceOnUse">
<stop stop-color="#E22B26" style="stop-color:#E22B26;stop-color:color(display-p3 0.8852 0.1701 0.1497);stop-opacity:1;"/>
<stop offset="1" stop-color="#A81F1B" style="stop-color:#A81F1B;stop-color:color(display-p3 0.6604 0.1222 0.1068);stop-opacity:1;"/>
</linearGradient>
<linearGradient id="paint7_linear_3905_1386" x1="313.207" y1="107.459" x2="313.207" y2="232.134" gradientUnits="userSpaceOnUse">
<stop stop-color="#FFA4A1" style="stop-color:#FFA4A1;stop-color:color(display-p3 1.0000 0.6414 0.6318);stop-opacity:1;"/>
<stop offset="1" stop-color="#CB312C" style="stop-color:#CB312C;stop-color:color(display-p3 0.7941 0.1907 0.1706);stop-opacity:1;"/>
</linearGradient>
<linearGradient id="paint8_linear_3905_1386" x1="199.664" y1="255.134" x2="309.524" y2="191.902" gradientUnits="userSpaceOnUse">
<stop stop-color="#D83CB6" style="stop-color:#D83CB6;stop-color:color(display-p3 0.8489 0.2366 0.7140);stop-opacity:1;"/>
<stop offset="1" stop-color="#8B2674" style="stop-color:#8B2674;stop-color:color(display-p3 0.5448 0.1508 0.4568);stop-opacity:1;"/>
</linearGradient>
<linearGradient id="paint9_linear_3905_1386" x1="244.406" y1="36.7322" x2="187.825" y2="274.814" gradientUnits="userSpaceOnUse">
<stop stop-color="#FFC2F1" style="stop-color:#FFC2F1;stop-color:color(display-p3 1.0000 0.7597 0.9471);stop-opacity:1;"/>
<stop offset="1" stop-color="#D54DB7" style="stop-color:#D54DB7;stop-color:color(display-p3 0.8369 0.3028 0.7177);stop-opacity:1;"/>
</linearGradient>
<linearGradient id="paint10_linear_3905_1386" x1="289.172" y1="298.476" x2="289.172" y2="255.046" gradientUnits="userSpaceOnUse">
<stop stop-color="#F4B323" style="stop-color:#F4B323;stop-color:color(display-p3 0.9549 0.7002 0.1374);stop-opacity:1;"/>
<stop offset="1" stop-color="#D99500" style="stop-color:#D99500;stop-color:color(display-p3 0.8502 0.5858 0.0018);stop-opacity:1;"/>
</linearGradient>
<linearGradient id="paint11_linear_3905_1386" x1="280.414" y1="254.974" x2="269.391" y2="341.683" gradientUnits="userSpaceOnUse">
<stop stop-color="#FFEABC" style="stop-color:#FFEABC;stop-color:color(display-p3 1.0000 0.9178 0.7361);stop-opacity:1;"/>
<stop offset="1" stop-color="#F6BF45" style="stop-color:#F6BF45;stop-color:color(display-p3 0.9638 0.7477 0.2703);stop-opacity:1;"/>
</linearGradient>
</defs>
</svg>
